<svg version="1.2" xmlns="http://www.w3.org/2000/svg" viewBox="0 0 40 40" width="40" height="40">
	<title>blaze-svgrepo-com-svg</title>
	<style>
		.s0 { fill: #ead13f } 
		.s1 { fill: #e0a838 } 
		.s2 { fill: #231f20 } 
	</style>
	<g id="Layer">
		<g id="Layer">
			<path id="Layer" class="s0" d="m31.5 25c0 5.8-4.5 9.5-11.5 9.5-7 0-11.5-3.7-11.5-9.5 0-7.7 4.5-15.4 5.7-17.3 0.7 0.5 2.5 1.7 4.7 3.3l0.3 0.2 0.3-0.3c2.8-2.4 5.3-4.4 6.3-5.1 1.2 2.3 5.7 11.7 5.7 19.2z"/>
		</g>
		<g id="Layer">
			<path id="Layer" class="s1" d="m27 29c0 2.3-1.1 4-2.9 5q-1.8 0.5-4.1 0.5-2.3 0-4.1-0.5c-1.8-1-2.9-2.7-2.9-5 0-3.9 7-9 7-9 0 0 7 5.1 7 9z"/>
		</g>
		<path id="Layer" fill-rule="evenodd" class="s2" d="m32 25c0 6.6-5.4 10-12 10-6.6 0-12-3.4-12-10 0-9 6-18 6-18 0 0 2.3 1.4 5.2 3.6 3.6-3.3 6.8-5.6 6.8-5.6 0 0 6 11.2 6 20zm-1 0c0-6.9-3.9-15.5-5.3-18.5-1.2 1-3.5 2.7-5.9 4.8l-0.6 0.5-0.6-0.4c-1.8-1.3-3.4-2.4-4.3-3-1.4 2.4-5.3 9.6-5.3 16.6 0 4.4 2.9 9 11 9 8.1 0 11-4.6 11-9z"/>
	</g>
</svg>